<svg width="25" height="25" viewBox="0 0 25 25" fill="none" xmlns="http://www.w3.org/2000/svg">
<path d="M10.5 0H0.5C0.367392 0 0.240215 0.0526785 0.146447 0.146447C0.0526785 0.240215 0 0.367392 0 0.5V10.5C0 10.6326 0.0526785 10.7598 0.146447 10.8536C0.240215 10.9473 0.367392 11 0.5 11H10.5C10.6326 11 10.7598 10.9473 10.8536 10.8536C10.9473 10.7598 11 10.6326 11 10.5V0.5C11 0.367392 10.9473 0.240215 10.8536 0.146447C10.7598 0.0526785 10.6326 0 10.5 0ZM9 9H2V2H9V9ZM24.5 0H14.5C14.3674 0 14.2402 0.0526785 14.1464 0.146447C14.0527 0.240215 14 0.367392 14 0.5V10.5C14 10.6326 14.0527 10.7598 14.1464 10.8536C14.2402 10.9473 14.3674 11 14.5 11H24.5C24.6326 11 24.7598 10.9473 24.8536 10.8536C24.9473 10.7598 25 10.6326 25 10.5V0.5C25 0.367392 24.9473 0.240215 24.8536 0.146447C24.7598 0.0526785 24.6326 0 24.5 0ZM23 9H16V2H23V9ZM10.5 14H0.5C0.367392 14 0.240215 14.0527 0.146447 14.1464C0.0526785 14.2402 0 14.3674 0 14.5V24.5C6.62981e-06 24.6326 0.0526871 24.7598 0.146454 24.8535C0.240221 24.9473 0.367394 25 0.5 25H10.5C10.6326 25 10.7598 24.9473 10.8535 24.8535C10.9473 24.7598 11 24.6326 11 24.5V14.5C11 14.3674 10.9473 14.2402 10.8536 14.1464C10.7598 14.0527 10.6326 14 10.5 14ZM9 23H2V16H9V23ZM24.5 14H14.5C14.3674 14 14.2402 14.0527 14.1464 14.1464C14.0527 14.2402 14 14.3674 14 14.5V24.5C14 24.6326 14.0527 24.7598 14.1465 24.8535C14.2402 24.9473 14.3674 25 14.5 25H24.5C24.6326 25 24.7598 24.9473 24.8535 24.8535C24.9473 24.7598 25 24.6326 25 24.5V14.5C25 14.3674 24.9473 14.2402 24.8536 14.1464C24.7598 14.0527 24.6326 14 24.5 14ZM23 23H16V16H23V23Z" fill="black"/>
</svg>
